<svg xmlns="http://www.w3.org/2000/svg" xmlns:xlink="http://www.w3.org/1999/xlink" id="katman_1" x="0px" y="0px" viewBox="0 0 110.2 102.5" style="enable-background:new 0 0 110.2 102.5;" xml:space="preserve"><style type="text/css">	.st0{clip-path:url(#SVGID_2_);}	.st1{fill:#E20613;}	.st2{fill:#FFFFFF;}</style><title>1</title><g>	<defs>		<rect id="SVGID_1_" x="-94" y="-646.6" width="595.3" height="841.9"></rect>	</defs>	<clipPath id="SVGID_2_">		<use xlink:href="#SVGID_1_" style="overflow:visible;"></use>	</clipPath>	<g class="st0">		<path class="st1" d="M30.7,33.6h51.9c0-0.6,0.1-1.2,0.1-1.7C83,17.3,71.4,5.2,56.8,4.9C42.2,4.6,30.1,16.3,29.8,30.9   c0,0.3,0,0.7,0,1C29.8,32.5,30.4,33.6,30.7,33.6"></path>		<path class="st2" d="M0.6,33.6c36.1-1.3,72.6-1.3,108.7,0C73.2,34.9,36.6,34.9,0.6,33.6"></path>		<polygon class="st1" points="36.6,22.4 24.9,22.4 27.5,13.5 36.6,13.5   "></polygon>		<path class="st2" d="M32.6,76.1c-2.5,1.8-6,2.8-10.4,2.8h-21C0.6,78.9,0,78.5,0,78c0-0.1,0-0.2,0-0.3V39.5c0-0.8,0.4-1.2,1.2-1.2   h19.4c4.5,0,7.9,0.9,10.4,2.8c2.5,1.8,3.8,4.7,3.8,8.7s-1.5,6.7-4.5,8.4c4.1,1.7,6.2,4.9,6.2,9.8C36.3,71.6,35,74.3,32.6,76.1    M20.5,54.2c2.8,0,4.2-1.2,4.2-3.4c0-2.4-1.4-3.6-4.2-3.6H9.9v7L20.5,54.2z M22.2,70c2.8,0,4.2-1.2,4.2-3.4c0-2.4-1.4-3.7-4.2-3.7   H9.9v7L22.2,70z"></path>		<path class="st2" d="M64,71.7c-1.8,1.4-4.5,2.1-7.9,2.1h-5.6c-2.8,0.1-5.5-0.6-7.8-2.1c-1.9-1.4-2.9-3.7-2.8-6.1   c0-3.7,1.6-6.1,4.7-7.3c-2.3-1.4-3.4-3.6-3.4-6.8c-0.1-2.4,0.9-4.6,2.8-6.1c1.9-1.4,4.5-2.1,7.8-2.1h3.1c3.3,0,6,0.7,7.8,2.1   c1.9,1.4,3,3.7,2.8,6.1c0,0.5-0.3,0.8-0.9,0.9l-5.9,1c-0.5,0.1-0.7-0.2-0.7-0.8c0-1.7-1.1-2.6-3.2-2.6h-3.1   c-2.1,0-3.2,0.9-3.2,2.6s1.1,2.7,3.2,2.7h15.3c0.4-0.1,0.8,0.2,0.9,0.6c0,0.1,0,0.2,0,0.3V61c0.1,0.4-0.2,0.8-0.6,0.9   c-0.1,0-0.2,0-0.3,0h-1c0.5,1.2,0.7,2.5,0.7,3.8C66.9,68,65.9,70.2,64,71.7 M59.4,64.6c0-1.8-1.1-2.7-3.2-2.7h-5.6   c-2.1,0-3.2,0.9-3.2,2.7s1.1,2.6,3.2,2.6h5.6C58.2,67.1,59.3,66.3,59.4,64.6"></path>		<path class="st2" d="M106.5,76.1c-2.5,1.8-5.9,2.8-10.4,2.8h-21c-0.6,0.1-1.1-0.3-1.2-0.9c0-0.1,0-0.2,0-0.3V39.5   c0-0.8,0.4-1.2,1.2-1.2h19.4c4.5,0,7.9,0.9,10.4,2.8s3.8,4.7,3.8,8.7s-1.5,6.7-4.5,8.4c4.1,1.7,6.2,4.9,6.2,9.8   C110.3,71.6,109,74.3,106.5,76.1 M94.5,54.2c2.8,0,4.2-1.2,4.2-3.4c0-2.4-1.4-3.6-4.2-3.6H83.8v7L94.5,54.2z M96.1,70   c2.8,0,4.2-1.2,4.2-3.4c0-2.4-1.4-3.6-4.2-3.6H83.8v7L96.1,70z"></path>		<path class="st2" d="M21.2,21.5v7.8c0,0.7,0.6,1.2,1.2,1.3h4c0.1,1.8,1.7,3.2,3.5,3c1.6-0.1,2.9-1.4,3-3h34.2c1,0,1.8-0.8,1.8-1.8   c0,0,0,0,0,0c0-0.5-0.2-1-0.6-1.3C68,27.1,67.6,27,67.2,27H48.7c-0.5,0-0.9-0.2-1.2-0.5c-0.4-0.3-0.6-0.8-0.5-1.3   c0-1,0.8-1.8,1.8-1.8h8.2c1-0.1,1.7-0.9,1.7-1.9c-0.1-0.9-0.8-1.6-1.7-1.7h-6.9c-1-0.1-1.7-0.9-1.7-1.9c0.1-0.9,0.8-1.6,1.7-1.7   H59c1-0.1,1.7-0.9,1.7-1.9c-0.1-0.9-0.8-1.6-1.7-1.7H48.1c-1-0.1-1.7-0.9-1.7-1.9c0.1-0.9,0.8-1.6,1.7-1.7h8.1   c1-0.1,1.7-0.9,1.7-1.9c-0.1-0.9-0.8-1.6-1.7-1.7H38.8v0.1c-1.5,0.3-2.5,1.7-2.5,3.2v2.5h-6.6c-1,0-1.9,0.5-2.5,1.3l-5.8,8.3   C21.3,21,21.2,21.2,21.2,21.5 M26.5,19.3c0-0.2,0.1-0.4,0.2-0.5l2.9-4.2c0.2-0.3,0.5-0.4,0.8-0.4h3.9c0.2,0,0.4,0.2,0.4,0.4   c0,0,0,0,0,0V20c0,0.4-0.3,0.7-0.7,0.7h-7c-0.2,0-0.5-0.2-0.5-0.4c0,0,0,0,0,0L26.5,19.3z"></path>		<path class="st2" d="M2.8,16.2c0.5,0,0.9,0.1,1.3,0.4c0.3,0.3,0.5,0.7,0.4,1.1c0,0.4-0.2,0.8-0.4,1C3.7,18.9,3.2,19,2.8,19H0.6   c-0.1,0-0.1,0-0.1-0.1v-0.7c0-0.1,0-0.1,0.1-0.1c0,0,0,0,0,0h2.2c0.4,0,0.6-0.1,0.6-0.4c0-0.3-0.2-0.4-0.6-0.4H2.2   c-0.5,0-0.9-0.1-1.3-0.4c-0.3-0.3-0.4-0.7-0.4-1.1c0-0.4,0.2-0.8,0.5-1c0.4-0.3,0.8-0.4,1.3-0.4h2c0.1,0,0.1,0,0.1,0.1   c0,0,0,0,0,0v0.7c0,0.1,0,0.1-0.1,0.1H2.2c-0.4,0-0.6,0.1-0.6,0.4c0,0.3,0.2,0.4,0.6,0.4L2.8,16.2z"></path>		<path class="st2" d="M5.5,14.4h0.9c0.1,0,0.1,0.1,0.1,0.1v4.4C6.5,19,6.5,19,6.4,19H5.5c-0.1,0-0.1-0.1-0.1-0.1v-4.4   C5.4,14.4,5.5,14.4,5.5,14.4z"></path>		<path class="st2" d="M10.5,19c-0.1,0-0.1,0-0.1-0.1c0,0,0,0,0,0v-2.2c0-0.4-0.1-0.7-0.3-1c-0.2-0.2-0.4-0.3-0.7-0.3H8.6v3.5   c0,0.1,0,0.1-0.1,0.1c0,0,0,0,0,0H7.6c-0.1,0-0.1,0-0.2-0.1c0,0,0,0,0-0.1v-4.4c0-0.1,0.1-0.1,0.1-0.1h1.9c0.6,0,1.1,0.2,1.5,0.6   c0.4,0.5,0.6,1.1,0.5,1.8v2.2c0,0.1-0.1,0.1-0.1,0.1H10.5z"></path>		<path class="st2" d="M16.5,18.9c0,0.1,0,0.1-0.1,0.1h-1.9c-0.6,0.1-1.2-0.2-1.6-0.6c-0.4-0.5-0.6-1.1-0.5-1.7   c-0.1-0.6,0.1-1.3,0.5-1.8c0.4-0.4,1-0.7,1.6-0.6h1.8c0.1,0,0.1,0,0.1,0.1c0,0,0,0,0,0v0.7c0,0.1,0,0.1-0.1,0.1c0,0,0,0,0,0h-1.8   c-0.3,0-0.5,0.1-0.7,0.3c-0.2,0.3-0.3,0.6-0.3,1c0,0.3,0.1,0.7,0.2,1c0.1,0.2,0.4,0.4,0.7,0.4h1.8c0.1,0,0.1,0,0.1,0.1L16.5,18.9z   "></path>		<path class="st2" d="M18.5,18h2.7c0.1,0,0.1,0,0.1,0.1c0,0,0,0,0,0v0.7c0,0.1,0,0.1-0.1,0.1c0,0,0,0,0,0h-3.7   c-0.1,0-0.1,0-0.1-0.1v-4.4c0-0.1,0-0.1,0.1-0.1c0,0,0,0,0,0h3.6c0.1,0,0.1,0,0.1,0.1c0,0,0,0,0,0v0.7c0,0.1,0,0.1-0.1,0.1   c0,0,0,0,0,0h-2.6v0.8h2.4c0.1,0,0.1,0,0.1,0.1v0.7c0,0.1,0,0.1-0.1,0.1h-2.4V18z"></path>		<path class="st2" d="M93.3,14.4c0.1,0,0.1,0,0.1,0.1c0,0,0,0,0,0v4.4c0,0.1,0,0.1-0.1,0.1h-0.9c-0.1,0-0.1,0-0.1-0.1c0,0,0,0,0,0   v-3c-0.2,0.1-0.4,0.2-0.6,0.2l0,0c-0.1,0-0.1,0-0.1-0.1v-0.9c0-0.1,0-0.1,0.1-0.1c0.2-0.1,0.4-0.2,0.6-0.4c0-0.1,0-0.1,0.1-0.1   c0,0,0,0,0,0L93.3,14.4z"></path>		<path class="st2" d="M96.7,17.1c0,0.1,0,0.1-0.1,0.1c0,0,0,0,0,0h-0.6c-0.5,0-0.9-0.1-1.3-0.4c-0.3-0.3-0.5-0.7-0.4-1.1   c0-0.4,0.2-0.8,0.4-1c0.4-0.3,0.8-0.4,1.3-0.4h0.3c0.6,0,1.2,0.2,1.6,0.6c0.4,0.5,0.6,1.1,0.5,1.7c0,0.6-0.1,1.2-0.5,1.7   c-0.4,0.4-1,0.7-1.6,0.6h-1.7c-0.1,0-0.1,0-0.1-0.1v-0.7c0-0.1,0-0.1,0.1-0.1h1.7c0.3,0,0.5-0.1,0.7-0.3c0.2-0.3,0.3-0.6,0.3-1   c0-0.3-0.1-0.7-0.2-1c-0.2-0.2-0.4-0.4-0.7-0.4H96c-0.4,0-0.6,0.1-0.6,0.4c0,0.3,0.2,0.4,0.6,0.4h0.6c0.1,0,0.1,0,0.1,0.1   c0,0,0,0,0,0L96.7,17.1z"></path>		<path class="st2" d="M102.8,18.7c-0.4,0.2-0.8,0.3-1.2,0.3h-0.9c-0.4,0-0.8-0.1-1.2-0.3c-0.3-0.2-0.4-0.5-0.4-0.9l0,0   c0-0.5,0.3-1,0.7-1.1c-0.3-0.2-0.5-0.6-0.5-1c0-0.4,0.1-0.7,0.4-0.9c0.4-0.2,0.8-0.3,1.2-0.3h0.5c0.4,0,0.8,0.1,1.2,0.3   c0.3,0.2,0.4,0.6,0.4,0.9c0,0.4-0.2,0.8-0.5,1c0.5,0.2,0.8,0.6,0.7,1.1C103.3,18.2,103.1,18.5,102.8,18.7 M102.1,17.7   c0-0.3-0.2-0.4-0.5-0.4h-0.9c-0.3,0-0.5,0.1-0.5,0.4c0,0.3,0.2,0.4,0.5,0.4h0.9C102,18,102.1,17.9,102.1,17.7 M101.9,15.8   c0-0.3-0.2-0.4-0.5-0.4H101c-0.3,0-0.5,0.1-0.5,0.4c0,0.3,0.2,0.4,0.5,0.4h0.5C101.8,16.2,101.9,16.1,101.9,15.8"></path>		<path class="st2" d="M106.3,17.4h-0.4c-0.4,0-0.7,0.2-0.8,0.6h2.6c0.1,0,0.1,0,0.1,0.1c0,0,0,0,0,0v0.7c0,0.1,0,0.1-0.1,0.1   c0,0,0,0,0,0h-3.7c-0.1,0-0.1,0-0.1-0.1v-0.3c0-1.4,0.7-2.2,2-2.2h0.4c0.3,0,0.5-0.2,0.5-0.5c0-0.2-0.1-0.5-0.4-0.5   c0,0-0.1,0-0.1,0h-2.1c-0.1,0-0.1,0-0.1-0.1v-0.7c0-0.1,0-0.1,0.1-0.1c0,0,0,0,0,0h2.1c0.5,0,0.9,0.1,1.2,0.5   c0.3,0.3,0.4,0.7,0.4,1.1c0,0.4-0.1,0.8-0.4,1.1C107.2,17.3,106.7,17.4,106.3,17.4"></path>		<path class="st2" d="M94.1,12.5c-0.1-0.7-0.4-1.3-0.7-1.9c2.2,0.1,5.3,2.9,5.3,2.9c-1.9-3.6-5.7-5.9-9.8-5.9   c-4.2,0.1-8.8,3-10.4,4.1c0.6-1,1.5-1.8,2.7-2.1c-0.3-0.2-0.6-0.3-1-0.3c0.7-0.8,1.7-1.3,2.7-1.6c-0.3-0.4-0.8-0.6-1.2-0.6   c0.8-0.6,1.7-1.1,2.7-1.3c-0.4-0.3-0.9-0.5-1.4-0.5C83.8,4.2,86.1,4,86.1,4c-0.4-0.3-0.9-0.5-1.4-0.6c1.2-1.1,4.2-1.3,4.2-1.3   c-2.9-0.9-6-0.1-8.2,2.1c-2,2.1-2.8,5.4-3.1,7.1c0-1.8-0.4-5.4-2.1-7.9c-1.8-2.6-5-3.9-8.1-3.5c0,0,3.1,0.7,4.1,2   c-0.5,0-1,0.2-1.5,0.4c0,0,2.4,0.5,3.1,1.9c-0.5-0.1-1.1,0-1.5,0.3c1,0.4,1.8,1,2.5,1.7c-0.5-0.1-1,0.1-1.4,0.4   c1,0.4,1.9,1.1,2.6,2.1c-0.4-0.1-0.7-0.1-1.1,0.1c1.1,0.6,2,1.6,2.4,2.8c-1.1-1.3-4.5-5.2-8.4-6.3c-3.7-1-7.6,0.1-10.2,2.9   c0,0,3.4-1.7,5.4-1.3c-0.5,0.4-0.9,0.9-1.1,1.5c0,0,2.6-1.3,4.3-0.6c-0.5,0.3-1,0.9-1.2,1.5c1.2-0.4,2.5-0.5,3.7-0.3   c-0.5,0.3-0.9,0.8-1,1.4c1.3-0.4,2.7-0.4,4,0c-0.4,0.2-0.8,0.5-0.9,0.9c1.4-0.3,2.8-0.1,4,0.5c-2.1-0.4-7-0.9-10.6,0.7   c-3.6,1.7-6,5.3-6.2,9.3c0,0,1.5-3.7,3.4-4.7c-0.1,0.7,0,1.4,0.1,2c0,0,1.2-2.8,3.1-3.4c-0.2,0.6-0.2,1.4,0,2   c0.7-1.1,1.6-2.1,2.7-2.8c-0.2,0.6-0.1,1.3,0.2,1.8c0.8-1.2,1.9-2.2,3.2-2.8c-0.2,0.4-0.3,0.9-0.1,1.4c1-1.3,2.5-2.2,4.2-2.5   c-1.9,1-5.3,3.2-6.8,6c-1.7,3.2-1.5,7.2,0.5,10.2c0,0-0.9-3.6-0.1-5.3c0.3,0.5,0.7,1,1.2,1.4c0,0-0.6-2.7,0.4-4.2   c0.2,0.6,0.6,1.1,1.1,1.4c-0.1-1.2,0.1-2.4,0.5-3.5c0.2,0.5,0.6,0.9,1.1,1.2c-0.1-1.3,0.2-2.6,0.8-3.7c0.1,0.4,0.3,0.8,0.7,1.1   c0-1.2,0.4-2.3,1.1-3.2c-1.7,6.4-2.7,12.9-3,19.5h3.7c-0.7-6.4-0.4-12.9,0.9-19.3c0.4,1.1,0.4,2.4,0,3.5c0.4-0.1,0.8-0.4,1-0.8   c0.2,1.3,0.1,2.6-0.5,3.8c0.6,0,1.1-0.3,1.5-0.8c0,1.2-0.2,2.4-0.7,3.5c0.6-0.2,1.1-0.5,1.5-1c0.5,1.7-1,4.1-1,4.1   c0.6-0.2,1.1-0.5,1.6-0.9c0.2,1.9-1.8,5-1.8,5c2.9-2.2,4.4-5.8,3.9-9.5c-0.6-3.4-3.2-6.6-4.6-8.1c1.7,0.8,3,2.3,3.6,4.2   c0.3-0.4,0.3-0.9,0.2-1.4c1.1,1.1,1.9,2.4,2.2,3.9c0.5-0.4,0.8-1.1,0.9-1.7c0.9,1.1,1.5,2.4,1.8,3.8c0.5-0.6,0.7-1.3,0.8-2   c1.6,1.3,1.9,4.6,1.9,4.6c0.4-0.6,0.7-1.3,0.8-2c1.5,1.7,1.7,6,1.7,6c1.3-4.1,0.2-8.6-2.9-11.6c-2.8-2.8-7.6-4-10-4.5   c1.6-0.4,3.2-0.2,4.7,0.5c-0.1-0.5-0.3-0.9-0.7-1.2c1.5,0,2.9,0.4,4.2,1.1c0.1-0.6-0.2-1.3-0.6-1.8c1.4,0.2,2.6,0.6,3.8,1.4   c-0.1-0.7-0.4-1.4-0.8-1.9C91.8,10.4,94.2,12.5,94.1,12.5 M77.6,12.5L77.6,12.5L77.6,12.5z"></path>		<path class="st2" d="M59.2,12.3h0.6c0.9,0,1.6-0.7,1.6-1.6c0-0.9-0.7-1.6-1.6-1.6h-0.6c-0.9,0-1.6,0.7-1.6,1.6   C57.6,11.5,58.3,12.2,59.2,12.3C59.2,12.3,59.2,12.3,59.2,12.3"></path>		<path class="st2" d="M62.2,23.3H65c1,0.1,1.8-0.7,1.9-1.6c0.1-1-0.7-1.8-1.6-1.9c-0.1,0-0.2,0-0.3,0h-2.9c-1,0.1-1.7,0.9-1.6,1.9   C60.6,22.6,61.3,23.3,62.2,23.3"></path>		<polygon class="st2" points="0.2,102.3 0.2,84.3 5.7,84.3 7.2,95.3 8.7,84.3 14.2,84.3 14.2,102.3 10.9,102.3 10.9,89.4    8.8,102.3 5.6,102.3 3.4,89.4 3.4,102.3   "></polygon>		<path class="st2" d="M26,101.2c-0.8-1.1-1.2-2.4-1.1-3.7v-8.6c-0.1-1.3,0.3-2.5,1.1-3.5c0.9-0.8,2.1-1.3,3.3-1.2   c1.2-0.1,2.4,0.3,3.3,1.2c0.8,1,1.2,2.2,1.1,3.5v8.6c0.1,1.3-0.3,2.7-1.1,3.8c-0.8,0.9-2.1,1.4-3.3,1.3   C28,102.6,26.8,102.1,26,101.2 M30,98.8c0.1-0.4,0.2-0.8,0.2-1.2v-8.8c0-0.3,0-0.7-0.2-1c-0.1-0.3-0.4-0.4-0.6-0.4   c-0.6,0-0.9,0.4-0.9,1.4v8.8c0,0.4,0,0.8,0.2,1.2c0.1,0.3,0.4,0.4,0.7,0.4C29.6,99.2,29.9,99,30,98.8"></path>		<polygon class="st2" points="46,102.3 43.8,84.3 47.3,84.3 48.6,96.6 49.8,84.3 53.2,84.3 51,102.3   "></polygon>		<polygon class="st2" points="63.4,102.3 63.4,84.3 70.6,84.3 70.6,87.8 67.1,87.8 67.1,91.3 70.5,91.3 70.5,94.7 67.1,94.7    67.1,98.8 70.8,98.8 70.8,102.3   "></polygon>		<path class="st2" d="M81.3,84.3h5.5c0.7,0,1.4,0.2,2,0.6c0.5,0.4,0.9,1,1,1.7c0.2,0.9,0.3,1.8,0.3,2.8c0,0.8-0.1,1.6-0.4,2.4   c-0.3,0.6-0.8,1-1.4,1.2c0.5,0.1,0.9,0.4,1.2,0.8c0.3,0.5,0.4,1.2,0.4,1.8v6.8h-3.6v-7c0-0.5-0.1-0.8-0.3-1   c-0.3-0.2-0.7-0.2-1.1-0.2v8.2h-3.6V84.3z M85.8,91c0.5,0,0.8-0.6,0.8-1.6c0-0.3,0-0.7-0.1-1c0-0.2-0.1-0.4-0.2-0.5   c-0.1-0.1-0.3-0.1-0.5-0.1h-0.8V91H85.8z"></path>		<path class="st2" d="M101.2,101.3c-0.8-1.1-1.2-2.5-1.1-3.9v-1.8h3.5v2.2c0,0.9,0.3,1.3,0.9,1.3c0.3,0,0.5-0.1,0.7-0.3   c0.2-0.3,0.2-0.7,0.2-1c0-0.5-0.1-1-0.2-1.5c-0.1-0.4-0.3-0.7-0.5-1c-0.2-0.3-0.6-0.7-1.2-1.2l-1.6-1.6c-1.1-1-1.8-2.4-1.8-3.9   c-0.1-1.3,0.3-2.5,1.1-3.5c0.8-0.8,1.9-1.3,3.1-1.2c1.3-0.1,2.6,0.4,3.5,1.3c0.8,1.2,1.2,2.6,1.1,4h-3.7v-1.2   c0-0.2-0.1-0.4-0.2-0.6c-0.1-0.1-0.4-0.2-0.6-0.2c-0.2,0-0.5,0.1-0.6,0.2c-0.1,0.2-0.2,0.4-0.2,0.6c0.1,0.7,0.4,1.4,1,1.8l2.1,2   c0.4,0.4,0.8,0.9,1.2,1.3c0.3,0.5,0.6,1,0.8,1.5c0.2,0.7,0.3,1.4,0.3,2.1c0.1,1.4-0.3,2.8-1,4c-0.8,1-2,1.5-3.2,1.4   c-1.3,0.1-2.6-0.3-3.5-1.2"></path>	</g></g></svg>